<?xml version="1.0" standalone="no"?>
<!DOCTYPE svg PUBLIC "-//W3C//DTD SVG 1.1//EN" "http://www.w3.org/Graphics/SVG/1.1/DTD/svg11.dtd" >
<svg xmlns="http://www.w3.org/2000/svg">
<metadata>Generated by IcoMoon</metadata>
<defs>
<font id="icomoon" horiz-adv-x="1024">
<font-face units-per-em="1024" ascent="960" descent="-64" />
<missing-glyph horiz-adv-x="1024" />
<glyph unicode="&#x20;" horiz-adv-x="512" d="" />
<glyph unicode="&#xe900;" d="M285.133 108.851c0 6.845-2.403 12.889-7.209 18.132-4.806 5.388-10.631 9.976-17.476 13.763s-13.69 7.646-20.535 11.578c-6.699 4.078-12.452 9.248-17.258 15.51s-7.209 13.544-7.209 21.845c0 11.068 3.714 20.025 11.141 26.87 7.573 6.99 16.457 10.486 26.651 10.486 6.117 0 12.743-1.238 19.879-3.714s11.432-3.714 12.889-3.714c3.786 0 6.117 2.476 6.991 7.427h4.588l4.806-46.531h-5.461c-3.495 12.816-8.884 22.282-16.166 28.399-7.136 6.117-15.073 9.175-23.811 9.175-6.699 0-12.161-1.893-16.384-5.68s-6.335-8.665-6.335-14.636c0-5.826 2.476-11.36 7.427-16.602s13.18-11.068 24.685-17.476c14.418-7.719 24.831-15.365 31.239-22.938 6.408-7.427 9.612-15.656 9.612-24.685 0-11.214-4.296-20.68-12.889-28.399-8.593-7.573-19.151-11.36-31.676-11.36-7.282 0-14.709 1.238-22.282 3.714-7.427 2.476-12.015 3.714-13.763 3.714-1.602 0-2.986-0.728-4.151-2.185-1.165-1.311-1.82-2.986-1.966-5.024h-4.806l-6.554 46.312h5.024c5.388-13.253 11.651-23.010 18.787-29.273s15.583-9.393 25.341-9.393c8.010 0 14.491 2.257 19.442 6.772 4.952 4.66 7.427 10.631 7.427 17.913z" />
<glyph unicode="&#xe901;" d="M348.122 50.087c4.078 0 8.374 4.515 12.889 13.544s6.772 15.656 6.772 19.879c0 3.204-3.204 10.559-9.612 22.064l-3.277 6.554-25.559 55.487c-1.748 3.786-5.461 6.117-11.141 6.991v3.058h45.001v-3.277c-4.66-0.146-7.937-0.655-9.83-1.529s-2.84-2.33-2.84-4.369c0-2.185 0.728-4.952 2.185-8.301l25.122-55.269 21.19 60.293c0.582 1.311 0.874 2.549 0.874 3.714 0 3.641-3.495 5.461-10.486 5.461v3.277h29.491v-3.277c-2.622-0.291-4.733-1.165-6.335-2.621-1.456-1.311-2.84-3.714-4.151-7.209l-33.642-89.129c-5.825-15.729-11.651-26.943-17.476-33.642-5.68-6.699-12.161-10.049-19.442-10.049-4.66 0-8.52 1.238-11.578 3.714-3.058 2.33-4.588 5.316-4.588 8.957 0 2.621 0.947 4.879 2.84 6.772s4.078 2.84 6.554 2.84c3.204 0 6.626-0.655 10.267-1.966s5.898-1.966 6.772-1.966z" />
<glyph unicode="&#xe902;" d="M422.113 166.304v3.714c10.486 2.913 20.68 6.189 30.583 9.83l1.529-0.437v-16.384c9.029 6.845 15.729 11.359 20.098 13.544s8.957 3.277 13.763 3.277c11.505 0 19.224-6.117 23.156-18.35 11.359 12.233 23.229 18.35 35.608 18.35 16.894 0 25.34-12.962 25.341-38.885v-45.001c0-8.156 3.131-12.452 9.393-12.889l5.68-0.437v-3.277h-47.841v3.277c6.408 0.728 10.413 1.966 12.015 3.714s2.403 5.753 2.403 12.015v46.094c0 9.029-1.165 15.292-3.495 18.787s-6.627 5.243-12.889 5.243c-9.612 0-17.549-4.442-23.811-13.326v-55.050c0-6.845 1.019-11.432 3.058-13.763 2.184-2.33 6.408-3.568 12.67-3.714v-3.277h-48.934v3.277c6.262 0.437 10.267 1.602 12.015 3.495 1.893 1.893 2.84 5.898 2.84 12.015v47.404c0 15.292-4.806 22.938-14.418 22.938-3.787 0-7.792-0.874-12.015-2.621-4.223-1.602-7.719-3.641-10.486-6.117-2.185-2.185-3.277-3.568-3.277-4.151v-61.604c0-4.223 1.019-7.136 3.058-8.738 2.039-1.456 5.971-2.33 11.796-2.621v-3.277h-48.497v3.277c6.117 0.146 10.194 1.238 12.233 3.277s3.058 6.044 3.058 12.015v55.269c0 5.243-0.583 8.884-1.748 10.923-1.019 2.039-2.986 3.058-5.898 3.058-2.185 0-4.515-0.291-6.991-0.874z" />
<glyph unicode="&#xe903;" d="M706.178 184.436c0-3.787-0.437-7.428-1.311-10.923s-2.622-7.209-5.243-11.141c-2.476-3.932-5.826-7.355-10.049-10.267-4.224-2.767-9.976-5.097-17.258-6.991s-15.729-2.84-25.341-2.84c-4.369 0-9.394 0.218-15.073 0.655v-39.759c0-8.010 1.238-13.253 3.714-15.729 2.621-2.33 8.228-3.641 16.821-3.932v-4.151h-61.167v4.151c8.301 0.728 13.398 2.257 15.292 4.588 2.039 2.476 3.058 8.301 3.058 17.476v94.59c0 7.864-1.019 12.889-3.058 15.073s-7.136 3.714-15.292 4.588v4.151h57.672c6.554 0 12.889-0.656 19.005-1.966 6.117-1.165 12.16-3.131 18.132-5.898 6.117-2.767 10.995-6.845 14.636-12.233s5.461-11.869 5.461-19.442zM631.904 208.466v-56.798c4.952-0.437 9.102-0.655 12.452-0.655 25.341 0 38.011 10.704 38.011 32.113 0 11.214-3.495 19.442-10.486 24.685-6.991 5.388-17.84 8.083-32.55 8.083-2.913 0-4.879-0.51-5.898-1.529s-1.529-2.986-1.529-5.898z" />
<glyph unicode="&#xe904;" d="M742.362 50.087c4.078 0 8.374 4.515 12.889 13.544s6.772 15.656 6.772 19.879c0 3.204-3.204 10.559-9.612 22.064l-3.277 6.554-25.559 55.487c-1.748 3.786-5.461 6.117-11.141 6.991v3.058h45.001v-3.277c-4.66-0.146-7.937-0.655-9.83-1.529s-2.84-2.33-2.84-4.369c0-2.185 0.728-4.952 2.185-8.301l25.122-55.269 21.19 60.293c0.582 1.311 0.874 2.549 0.874 3.714 0 3.641-3.495 5.461-10.486 5.461v3.277h29.491v-3.277c-2.622-0.291-4.733-1.165-6.335-2.621-1.456-1.311-2.84-3.714-4.151-7.209l-33.642-89.129c-5.825-15.729-11.651-26.943-17.476-33.642-5.68-6.699-12.161-10.049-19.442-10.049-4.66 0-8.52 1.238-11.578 3.714-3.058 2.33-4.588 5.316-4.588 8.957 0 2.621 0.947 4.879 2.84 6.772s4.078 2.84 6.554 2.84c3.204 0 6.626-0.655 10.267-1.966s5.898-1.966 6.772-1.966z" />
<glyph unicode="&#xe905;" d="M223.807 489.938c0 0-24.121 13.974-54.723 21.813s-36.722 5.794-67.683 9.543c-30.962 3.749-56.163 5.453-56.163 5.453l-1.44 107.701c0 0 45.165-5.112 81.167-10.906s38.13-6.135 62.84-12.27c24.71-6.135 36.002-12.27 36.002-12.27v-109.064z" />
<glyph unicode="&#xe906;" d="M212.378 568.083c0 0-31.061 14.016-75.093 21.524s-102.4 11.238-102.4 11.238l-0.683 13.466c0 0 60.757-2.843 105.813-9.6s72.363-17.428 72.363-17.428v-19.2z" />
<glyph unicode="&#xe907;" d="M219.253 494.375c0 0-18.091 12.839-62.123 21.892s-115.936 11.454-115.936 11.454l0.566 41.084c0 0 60.075-1.252 105.131-9.4s71.68-18.997 71.68-18.997l0.683-46.034z" />
<glyph unicode="&#xe908;" d="M218.736 516.786c0 0-18.091 14.061-62.123 20.125s-115.936 7.672-115.936 7.672l0.566 27.519c0 0 60.075-4.934 105.131-10.392s71.68-19.551 71.68-19.551l0.683-25.373z" />
<glyph unicode="&#xe909;" d="M205.411 558.966c0-0.004 0-0.008 0-0.012 0-13.863-10.374-25.101-23.17-25.101s-23.17 11.238-23.17 25.101c0 0.004 0 0.009 0 0.013s0 0.007 0 0.012c0 13.863 10.374 25.101 23.17 25.101s23.17-11.238 23.17-25.101c0-0.004 0-0.009 0-0.013z" />
<glyph unicode="&#xe90a;" d="M112.729 572.482c0-15.996-12.535-28.963-27.998-28.963s-27.998 12.967-27.998 28.963c0 15.996 12.535 28.963 27.998 28.963s27.998-12.967 27.998-28.963z" />
<glyph unicode="&#xe90b;" d="M226.141 777.412l273.067-81.92v-368.64l-273.067 81.92v368.64z" />
<glyph unicode="&#xe90c;" d="M772.274 777.412l-273.067-81.92v-368.64l273.067 81.92v368.64z" />
<glyph unicode="&#xe90d;" d="M226.141 777.412l273.067-81.92 273.067 81.92-273.067 95.573-273.067-95.573z" />
<glyph unicode="&#xe90e;" d="M551.184 371.597c-6.589-2.654-12.355-2.916-17.299-0.785-4.793 2.192-7.064 6.834-6.812 13.926 0.123 3.455 1.118 6.545 2.986 9.269 2.018 2.785 4.3 4.69 6.845 5.715s4.682 0.9 6.408-0.376c1.876-1.216 2.752-3.552 2.63-7.007-0.116-3.273-1.034-6.242-2.752-8.906s-3.782-4.66-6.191-5.989c3.758-2.25 8.557-2.199 14.398 0.154 14.526 5.852 22.458 27.6 23.794 65.243l6.218 175.123c0.594 16.73 4.779 32.756 12.557 48.079 7.933 15.564 17.965 25.79 30.095 30.677 6.589 2.654 12.28 2.886 17.074 0.694 4.943-2.132 7.289-6.743 7.037-13.835-0.129-3.637-1.203-6.848-3.22-9.633-1.862-2.543-4.065-4.327-6.611-5.352s-4.76-1.022-6.642 0.013c-1.726 1.276-2.525 3.733-2.395 7.37 0.116 3.273 1.033 6.242 2.752 8.906s3.782 4.66 6.191 5.989c-3.758 2.25-8.557 2.199-14.398-0.154-14.526-5.852-22.458-27.6-23.794-65.243l-6.218-175.123c-0.594-16.73-4.855-32.787-12.781-48.169-7.784-15.504-17.74-25.699-29.87-30.586z" />
<glyph unicode="&#xe90f;" d="M680.603 499.543v5.646c-8.67-2.706-9.66-1.741-9.66 7.183v110.547l-17.835-7.571v-5.646c8.67 2.706 9.66 1.741 9.66-7.183v-39.338c-3.592 5.435-8.917 8.508-15.605 6.42-14.615-4.562-27.619-26.47-27.619-49.964 0-23.129 12.138-37.37 26.257-32.963 7.927 2.475 13.5 10.406 16.596 17.201v-12.020l18.206 7.687zM662.396 515.35c0-3.278 0-3.642-1.362-7.164-3.716-9.902-9.289-15.648-14.615-17.311-5.573-1.74-10.032 1.603-13.004 7.596-3.22 6.462-3.592 16.727-3.592 24.194 0 6.738 0.248 17.743 3.839 27.060 2.601 6.458 7.307 13.937 13.995 16.025 4.335 1.353 9.537 0.245 13.376-6.752 1.362-2.671 1.362-3.035 1.362-6.313v-37.335z" />
<glyph unicode="&#xe910;" d="M744.713 545.601c0 1.821-0.991 1.512-1.858 1.241-1.486-0.464-1.61-0.685-2.229-3.792-3.344-16.706-9.537-25.742-14.738-27.366-2.477-0.773-5.821 0.368-5.821 9.839 0 4.371 1.362 12.627 2.353 19.129l4.211 26.265c1.734 10.012 5.078 21.072 10.899 22.889 0.372 0.116 3.468 1.083 5.449-0.848-4.954-3.368-4.954-10.288-4.954-10.288 0-2.368 1.115-5.48 4.335-4.475 2.229 0.696 6.069 4.444 6.069 11.547 0 9.288-7.183 9.231-10.775 8.11-6.812-2.127-10.899-12.326-12.138-16.173-2.725 10.077-8.793 9.639-11.89 8.672-12.385-3.866-19.073-29.812-19.073-34.001 0-1.821 1.239-1.435 1.858-1.241 1.61 0.503 1.61 0.685 2.229 3.792 3.344 16.706 9.784 25.82 14.738 27.366 3.592 1.121 5.945-2.333 5.945-9.618 0-4.371-1.486-13.759-2.601-20.845l-2.849-17.462c-1.982-12.456-4.583-27.838-12.014-30.158-0.372-0.116-3.344-1.044-5.449 0.848 3.716 2.617 4.83 7.518 4.83 10.25 0 4.735-2.601 5.016-4.211 4.513-3.096-0.967-6.193-5.758-6.193-11.768 0-7.103 5.202-9.668 10.899-7.889 5.945 1.856 10.032 10.052 12.138 16.173 2.477-9.608 8.546-9.716 11.766-8.711 12.757 3.982 19.073 30.358 19.073 34.001z" />
<glyph unicode="&#xe911;" d="M452.058 477.92l-6.984 2.126c-5.029-64.812-24.026-69.755-67.887-56.404l-77.107 23.471 70.122 91.477c2.514 3.207 2.514 5.591 2.514 5.591 0 1.986-1.117 4.313-1.956 6.157l-57.271 135.022 64.535-19.644c47.214-14.372 61.182-32.925 67.049-97.478l6.984-2.126-7.822 91.765-155.051 47.197c-6.705 2.041-7.264 2.211-7.264-6.926l69.564-164.983-66.49-87.418c-2.794-3.519-2.794-4.314-2.794-5.506 0-4.37 2.794-5.22 6.984-6.496l155.051-47.197 7.822 91.372z" />
<glyph unicode="&#xe912;" d="M442.142 785.194l-4.267 1.131-13.634-3.571-52.293 13.867c-1.997 0.53-2.905 0.77-5.437 0.107-1.071-0.281-1.266-0.332-1.507-0.73-2.324-3.336-12.355-5.964-14.4-6.499l-1.948-0.51 4.267-1.131 1.948 0.51c1.558 0.408 6.824 1.835 10.845 3.798l46.937-12.446-13.537-3.546 4.267-1.131c4.013 1.195 14.336 3.899 19.108 5.148s15.095 3.954 19.652 5.004z" />
<glyph unicode="&#xe913;" d="M509.792 818.179c-8.806 2.335-30.602 8.063-54.072 1.916s-1.96-11.903 6.937-14.262c8.988-2.383 30.057-7.919 53.527-1.771 23.373 6.122 2.687 11.71-6.392 14.118zM496.237 815.203c5.084-1.348 13.346-3.539 17.385-4.969 7.080-2.596 2.215-4.54-0.706-5.305-3.506-0.918-10.957-1.817-18.85-0.391-5.597 1.022-15.039 3.526-20.032 4.85-6.537 1.733-12.438 3.298-16.38 4.754-6.911 2.449-1.002 4.475 1.335 5.087 3.603 0.944 9.321 1.532 15.166 0.958 5.015-0.457 14.638-3.009 22.083-4.983z" />
<glyph unicode="&#xe914;" d="M550.954 758.137c-8.806 2.335-30.602 8.063-54.072 1.916s-1.96-11.903 6.937-14.262c8.988-2.383 30.057-7.919 53.527-1.771 23.373 6.122 2.687 11.71-6.392 14.118zM537.399 755.161c5.084-1.348 13.346-3.539 17.385-4.969 7.080-2.596 2.215-4.54-0.706-5.305-3.506-0.918-10.957-1.817-18.85-0.391-5.597 1.022-15.039 3.526-20.032 4.85-6.537 1.733-12.438 3.298-16.38 4.754-6.911 2.449-1.002 4.475 1.335 5.087 3.603 0.944 9.321 1.532 15.166 0.958 5.015-0.457 14.638-3.009 22.083-4.983z" />
<glyph unicode="&#xe915;" d="M669.708 773.977l-4.267 1.131-13.634-3.571-52.293 13.867c-1.997 0.53-2.905 0.77-5.437 0.107-1.071-0.281-1.266-0.332-1.507-0.73-2.324-3.336-12.355-5.964-14.4-6.499l-1.948-0.51 4.267-1.131 1.948 0.51c1.558 0.408 6.824 1.835 10.845 3.798l46.937-12.446-13.537-3.546 4.267-1.131c4.013 1.195 14.336 3.899 19.108 5.148s15.095 3.954 19.652 5.004z" />
<glyph unicode="&#xe916;" d="M529.86 722.118l-12.849 3.798-11.484-3.353-184.939 54.664 11.484 3.353-12.849 3.798-18.219-5.319 210.637-62.259 18.219 5.319z" />
<glyph unicode="&#xe917;" d="M710.339 774.812l-210.637 62.259-18.219-5.319 12.849-3.798 11.484 3.353 184.939-54.664-11.484-3.353 12.849-3.798 18.219 5.319z" />
<glyph unicode="&#xe918;" d="M483.328 593.596c-22.869 19.115 85.675-4.437 122.88-16.384s59.051-23.211 81.92-42.325c15.476-12.935 33.347-43.385 36.17-61.552 1.349-8.679 7.262-82.94-4.767-79.077-1.46 0.469-41.752-14.268-20.452-5.613 47.395 19.26-193.779 186.587-215.751 204.951z" />
<glyph unicode="&#xe919;" d="M315.607 681.75c-6.378-57.043 31.691-107.784 73.211-138.294 32.68-24.254 68.542-48.418 108.864-52.794 30.897 2.731 70.465 6.668 87.759-27.058 25.259-19.378 47.418 23.548 30.26 44.689-27.997 42.545-73.627 65.873-114.288 91.924-62.236 36.424-111.175 91.229-174.552 125.2-5.713-7.39-8.809-24.816-11.253-43.667z" />
<glyph unicode="&#xe91a;" d="M716.8 797.031c-74.326 3.005-151.145 5.324-222.158-20.49-32.874-10.365-63.038-39.583-64.409-75.524 1.364-14.743 4.085-28.823 6.598-43.386 4.398-17.474 15.13-33.181 17.141-51.202-7.76-7.228-24.19 6.239-35.378 7.379-11.21 6.371-33.348 5.673-37.238 16.779 4.409 43.648 8.818 87.296 13.227 130.944 45.966 20.935 91.932 41.87 137.899 62.805 61.44-9.102 122.88-18.204 184.32-27.307z" />
<glyph unicode="&#xe91b;" d="M330.093 339.886c-7.003 6.006-24.159 28.854-30.385 36.362-13.459 16.233 7.43 4.565 25.679 0.239 52.309-14.365 112.073-32.921 164.324-47.261 29.209 2.39 63.792 8.741 87.497 27.707 25.127 32.938 31.177 81.166 13.797 118.884-25.989 33.975-71.94 40.455-110.506 52.013-46.585 10.571-87.581 36.93-121.086 70.395-42.627 34.669-42.799 97.897-23.756 145.176 11.135 37.883 38.241 71.057 76.168 84.123 60.107 26.487 126.66 30.378 191.388 26.765 62.323-2.792 124.479-14.072 182.137-38.412 26.66-10.747 48.487-11.119 77.655-6.085 14.824-5.258 31.815-13.251 40.664-22.106 16.033-16.045 24.623-44.847 39.142-61.748 27.486-31.199-14.138-69.212-47.231-50.277-33.468 10.142-80.937 1.28-97.1 41.091-7.717 21.769-25.185 27.747-24.347 55.429-21.236 20.234-58.602 23.462-86.259 28.1-81.912 12.291-173.208 15.894-246.273-29.981-30.791-18.911-49.244-63.878-28.176-95.981 26.801-26.401 67.872-27.271 102.073-38.24 66.319-15.126 138.232-39.335 175.58-100.759 19.506-31.567 19.211-70.644 21.715-106.573 1.499-57.018-15.030-109.245-76.303-147.336-64.079-27.499-118.837-22.887-178.225-9.145-51.676 12.353-87.25 28.405-128.174 67.621z" />
<glyph unicode="&#xe91c;" d="M868.053 707.325c0-0.001 0-0.003 0-0.005 0-4.266-3.89-7.723-8.689-7.723s-8.689 3.458-8.689 7.723c0 0.002 0 0.003 0 0.005s0 0.003 0 0.004c0 4.266 3.89 7.723 8.689 7.723s8.689-3.458 8.689-7.723c0-0.002 0-0.003 0-0.005z" />
<glyph unicode="&#xe91d;" d="M900.878 758.493c0-0.002 0-0.003 0-0.005 0-4.799-3.89-8.689-8.689-8.689s-8.689 3.89-8.689 8.689c0 0.002 0 0.004 0 0.006s0 0.003 0 0.005c0 4.799 3.89 8.689 8.689 8.689s8.689-3.89 8.689-8.689c0-0.002 0-0.004 0-0.006z" />
<glyph unicode="&#xe91e;" d="M327.769 670.73c1.687-20.315 5.259-37.322 16.946-52.821 21.088-27.967 48.384-49.217 80.458-66.214 13.019-6.899 29.862-12.72 43.914-16.603 40.032-12.091 86.823-21.084 118.708-51.268 22.798-26.763-1.656 23.584-22.652 39.497-58.53 44.359-144.459 36.073-198.552 89.587-15.425 16.458-30.267 37.103-38.821 57.822z" />
<glyph unicode="&#xe91f;" d="M705.807 467.784c-2.622-49.316-12.729-111.399-46.355-147.216-57.889-40.835-151.977-43.611-217.37-20.686-35.565 11.039-63.035 27.182-95.442 45.493-12.679 7.192-28.878 24.778-34.176 26.686-7.411 2.669 7.491-20.64 15.99-29.48 39.299-44.943 90.053-58.199 158.898-74.238 59.913-7.848 101.492-12.65 162.472 24.242 43.284 33.074 50.051 60.362 56.843 92.604 5.455 50.075 1.578 47.266-0.86 82.595z" />
<glyph unicode="&#xe920;" d="M410.089 670.779c-13.084 37.384-7.979 69.567 15.515 89.677 29.285 25.067 50.224 32.851 92.679 45.687 45.819 3.892 65.847 3.45 168.060-2.197-78.301 14.023-182.181 27.164-254.796-11.989-42.159-24.33-60.736-80.824-21.458-121.179z" />
<glyph unicode="&#xe921;" d="M776.875 778.599c1.779-1.564 2.313-10.56 8.541-20.338s11.032-9.582 16.369-18.773c5.338-9.191 2.847-8.996 4.982-17.991s5.338-18.969 3.559-17.991c-1.779 0.978-4.448 11.733-10.676 21.902s-8.896 8.996-14.234 18.773c-5.338 9.778-4.982 11.733-7.117 20.338s-3.203 15.644-1.423 14.080z" />
<glyph unicode="&#xe922;" d="M704.025 467.405c-4.674-30.557-14.051-69.392-28.736-94.038-25.464-32.852-36.566-40.301-69.952-56.656-53.277-16.402-122.496-22.694-185.135 1.392-33.077 11.441-67.442 22.099-95.109 45.831-3.76 7.421-23.201 17.888-12.352 2.068 26.034-45.093 74.105-65.955 119.351-78.253 48.095-13.124 99.679-22.548 148.459-7.99 49.692 9.029 88.538 35.101 114.025 86.359 7.529 17.561 12.293 59.58 10.609 78.897 0.072 7.604-1.904 14.83-1.158 22.39z" />
<glyph unicode="&#xe923;" d="M328.259 685.437c1.687-20.315 5.259-37.322 16.946-52.821 21.088-27.967 48.384-49.217 80.458-66.214 13.019-6.899 29.862-12.72 43.914-16.603 40.032-12.091 84.775-25.863 116.66-56.047 11.192-9.696-0.974 16.075-21.969 31.987-58.53 44.359-148.555 38.804-202.648 92.318-15.425 16.458-24.806 46.66-33.36 67.38z" />
<glyph unicode="&#xe924;" d="M659.138 407.168c-0.405 38.286-7.467 105.864-49.159 137.864-49.053 49.186-138.778 36.455-195.825 72.061-23.472 21.272 39.884 5.883 92.572-7.349 53.615-12.484 117.729-24.224 149.971-71.026 26.112-44.433 31.029-102.011 2.441-131.549z" />
<glyph unicode="&#xe925;" d="M349.741 687.562c-6.485 37.308 4.031 78.664 33.594 103.741 43.718 38.399 103.559 50.574 160.235 51.683 78.132 3.752 156.782-7.981 230.42-34.361 18.28-6.376 36.535-12.948 54.142-21.027-58.466 11.296-114.938 32.285-174.393 38.841-48.33 5.864-97.383 7.622-145.904 3.859-41.908-5.598-87.439-14.258-117.213-47.084-17.424-14.259-29.697-34.575-31.1-57.37-5.442-25.707 2.783-54.703 21.441-72.254 20.816-14.505 20.026-15.42 35.846-21.636 9.639-3.787 9.724-5.281 11.761-10.916 1.028-2.845-0.554-5.793 1.839-8.194-9.633 1.679-17.038 2.263-25.189 6.126-8.846 4.193-14.996 8.472-27.98 19.289-13.91 14.23-24.969 28.204-27.498 49.303z" />
<glyph unicode="&#xe926;" d="M892.245 775.868c0.886-4.429-6.627 6.165-10.24 8.875-3.738 2.804-7.794 3.214-10.923 4.779-3.737 1.868-4.412 3.046-7.509 6.144-5.478 5.478 4.746 2.048 9.557 2.048 2.562 0 9.261-5.313 12.288-6.827 3.569-1.784 7.557-4.132 10.24-6.144 2.805-2.104 2.931-5.179 4.096-7.509 1.138-2.276-5.096-0.561-7.509-1.365z" />
<glyph unicode="&#xe927;" d="M926.379 683.708c-3.258-4.344 6.629 5.749 9.557 11.605 1.409 2.818 0.046 12.103-0.683 15.019-1.137 4.546-3.482 7.373-6.144 10.923-2.206 2.941 6.952-2.452 10.24-4.096 2.161-1.080 2.731-5.494 2.731-8.875 0-3.413 0-6.827 0-10.24 0-3.676-1.459-7.696-2.731-10.24-0.969-1.939-4.029-1.365-6.144-1.365z" />
<glyph unicode="&#xe928;" d="M828.441 718.248c5.401 9.877 13.102 13.516 27.032 13.516 15.39 0 22.386-0.362 15.447 13.516-5.218 10.436-12.095 14.428-5.793 27.032 8.409 16.818-12.52 4.126-15.447 1.931-10.773-8.080-16.665-7.723-30.894-7.723-8.236 0-5.793-4.322-5.793-11.585z" />
<glyph unicode="&#xe929;" d="M782.306 800.548c0-0.001 0-0.002 0-0.003 0-3.732-2.593-6.758-5.793-6.758s-5.793 3.026-5.793 6.758c0 0.001 0 0.002 0 0.003s0 0.002 0 0.003c0 3.732 2.593 6.758 5.793 6.758s5.793-3.026 5.793-6.758c0-0.001 0-0.002 0-0.003z" />
<glyph unicode="&#xe92a;" d="M726.973 817.36c0-0.001 0-0.002 0-0.003 0-3.732-3.89-6.758-8.689-6.758s-8.689 3.026-8.689 6.758c0 0.001 0 0.002 0 0.003s0 0.002 0 0.003c0 3.732 3.89 6.758 8.689 6.758s8.689-3.026 8.689-6.758c0-0.001 0-0.002 0-0.003z" />
<glyph unicode="&#xe92b;" d="M668.337 828.263c0 0 0 0 0 0 0-3.954-3.69-7.159-8.242-7.159s-8.242 3.205-8.242 7.159c0 0 0 0 0 0s0 0 0 0c0 3.954 3.69 7.159 8.242 7.159s8.242-3.205 8.242-7.159c0 0 0 0 0 0z" />
<glyph unicode="&#xe92c;" d="M609.658 833.207c0-4.266-4.755-7.723-10.62-7.723s-10.62 3.458-10.62 7.723c0 0 0 0 0 0 0 4.266 4.755 7.723 10.62 7.723s10.62-3.458 10.62-7.723c0 0 0 0 0 0z" />
<glyph unicode="&#xe92d;" d="M540.712 830.711c0-0.001 0-0.003 0-0.005 0-5.332-5.187-9.654-11.585-9.654s-11.585 4.322-11.585 9.654c0 0.002 0 0.003 0 0.005s0 0.003 0 0.004c0 5.332 5.187 9.654 11.585 9.654s11.585-4.322 11.585-9.654c0-0.002 0-0.003 0-0.005z" />
<glyph unicode="&#xe92e;" d="M478.924 815.663c0 0 0-0.001 0-0.002 0-5.865-6.051-10.62-13.516-10.62s-13.516 4.755-13.516 10.62c0 0.001 0 0.001 0 0.002s0 0.001 0 0.001c0 5.865 6.051 10.62 13.516 10.62s13.516-4.755 13.516-10.62c0-0.001 0-0.001 0-0.002z" />
<glyph unicode="&#xe92f;" d="M425.094 781.239c0 0 0 0 0 0 0-7.998-7.348-14.482-16.412-14.482s-16.412 6.484-16.412 14.482c0 0 0 0 0 0s0 0 0 0c0 7.998 7.348 14.482 16.412 14.482s16.412-6.484 16.412-14.482c0 0 0 0 0 0z" />
<glyph unicode="&#xe930;" d="M388.407 718.086c0-0.002 0-0.004 0-0.007 0-9.064-7.78-16.412-17.378-16.412s-17.378 7.348-17.378 16.412c0 0.002 0 0.005 0 0.007s0 0.004 0 0.006c0 9.064 7.78 16.412 17.378 16.412s17.378-7.348 17.378-16.412c0-0.002 0-0.005 0-0.007z" />
<glyph unicode="&#xe931;" d="M426.613 634.093c0-0.003 0-0.005 0-0.008 0-12.386-10.347-22.427-23.11-22.427s-23.11 10.041-23.11 22.427c0 0.003 0 0.006 0 0.009s0 0.005 0 0.008c0 12.386 10.347 22.427 23.11 22.427s23.11-10.041 23.11-22.427c0-0.003 0-0.006 0-0.009z" />
<glyph unicode="&#xe932;" d="M540.946 581.394c0-0.002 0-0.005 0-0.008 0-13.863-12.535-25.101-27.998-25.101s-27.998 11.238-27.998 25.101c0 0.003 0 0.006 0 0.008s0 0.005 0 0.007c0 13.863 12.535 25.101 27.998 25.101s27.998-11.238 27.998-25.101c0-0.003 0-0.006 0-0.008z" />
<glyph unicode="&#xe933;" d="M641.352 530.226c0 0 0 0 0 0 0-13.33-10.374-24.136-23.17-24.136s-23.17 10.806-23.17 24.136c0 0 0 0 0 0s0 0 0 0c0 13.33 10.374 24.136 23.17 24.136s23.17-10.806 23.17-24.136c0 0 0 0 0 0z" />
<glyph unicode="&#xe934;" d="M683.831 435.613c0-14.396-9.509-26.067-21.24-26.067s-21.24 11.67-21.24 26.067c0 0 0 0 0 0 0 14.396 9.509 26.067 21.24 26.067s21.24-11.67 21.24-26.067c0 0 0 0 0 0z" />
<glyph unicode="&#xe935;" d="M662.591 355.482c0-0.003 0-0.007 0-0.011 0-11.73-9.077-21.24-20.274-21.24s-20.274 9.509-20.274 21.24c0 0.004 0 0.008 0 0.012s0 0.007 0 0.010c0 11.73 9.077 21.24 20.274 21.24s20.274-9.509 20.274-21.24c0-0.004 0-0.008 0-0.012z" />
<glyph unicode="&#xe936;" d="M603.98 296.97c0-8.971-10.888-16.244-24.319-16.244s-24.319 7.273-24.319 16.244c0 8.971 10.888 16.244 24.319 16.244s24.319-7.273 24.319-16.244z" />
<glyph unicode="&#xe937;" d="M492.018 300.387c0-0.003 0-0.006 0-0.010 0-7.448-9.981-13.486-22.292-13.486s-22.292 6.038-22.292 13.486c0 0.003 0 0.007 0 0.010 0 0.002 0 0.006 0 0.009 0 7.448 9.981 13.486 22.292 13.486s22.292-6.038 22.292-13.486c0-0.003 0-0.007 0-0.010z" />
<glyph unicode="&#xe938;" d="M411.127 331.963c0 0 0 0 0 0 0-4.717-10.234-8.542-22.858-8.542s-22.858 3.824-22.858 8.542c0 0 0 0 0 0s0 0 0 0c0 4.717 10.234 8.542 22.858 8.542s22.858-3.824 22.858-8.542c0 0 0 0 0 0z" />
<glyph unicode="&#xe939;" d="M302.287 381.028c65.662-16.988 131.324-33.975 196.985-50.963 5.794 1.82 11.587 3.64 17.381 5.46-5.237-6.162-10.514-12.35-16.955-17.415-6.101-6.911-1.985-16.357-2.676-24.432 0.977-7.142-2.744-16.623-12.084-14.909-13.35 0.673-25.367 7.095-38.231 9.986-28.969 7.334-58.535 15.985-83.587 30.844-22.646 13.432-40.878 33.369-61.317 50.053 0.161 3.792 0.322 7.584 0.483 11.376z" />
<glyph unicode="&#xe93a;" glyph-name="sympyArrowLeft" d="M745.375 960l-512-512 512-512 45.25 45.25-466.75 466.75 466.75 466.75-45.25 45.25z" />
<glyph unicode="&#xe93b;" glyph-name="sympyArrowRight" d="M278.625 960l512-512-512-512-45.25 45.25 466.75 466.75-466.75 466.75 45.25 45.25z" />
<glyph unicode="&#xe93c;" glyph-name="sympyMenuIcon" d="M0 960v-128h1024v128zM0 512v-128h1024v128zM0 64v-128h128v128zM448 64v-128h128v128zM896 64v-128h128v128z" />
</font>
</defs>
</svg>
